<svg width="1029" height="558" viewBox="0 0 1029 558" fill="none" xmlns="http://www.w3.org/2000/svg">
<path d="M324.958 127.045H217.119V349.116H324.958V127.045Z" fill="#FCDDEC"/>
<path d="M757.138 74.6113H649.299V347.677H757.138V74.6113Z" fill="#FCDDEC"/>
<path d="M721.331 266.868L658.356 247.951L689.432 189.965C690.461 187.909 690.872 185.647 690.872 183.386H691.078V154.187L678.113 165.496L647.243 134.653C643.333 130.746 637.364 129.924 632.425 132.391L574.39 163.44L555.456 100.52C553.81 95.1739 548.87 91.4727 543.314 91.4727H486.307C480.751 91.4727 475.811 95.1739 474.165 100.52L455.231 163.44L397.196 132.391C392.257 129.718 386.288 130.746 382.378 134.653L351.097 165.908L338.337 154.599V183.797H338.543C338.543 185.853 338.749 188.115 339.983 189.965L371.059 247.951L308.084 266.868C302.734 268.513 299.029 273.448 299.029 279V335.957C299.029 341.509 302.734 346.444 308.084 348.089L371.059 367.006L350.068 406.28L338.543 400.933V431.777C338.749 434.655 339.778 437.534 342.041 439.796L382.378 480.098C386.288 484.005 392.257 484.827 397.196 482.36L455.231 451.311L474.165 514.231C475.811 519.577 480.751 523.278 486.307 523.278H543.314C548.87 523.278 553.81 519.577 555.456 514.231L574.39 451.311L632.425 482.36C637.364 485.033 643.333 484.005 647.243 480.098L687.58 439.796C690.049 437.328 691.284 433.833 691.078 430.543L691.284 430.749V401.55L679.759 406.485L658.562 367.006L721.537 348.089C726.887 346.444 730.592 341.509 730.592 335.957V279C730.386 273.448 726.682 268.513 721.331 266.868Z" fill="#81A6D9"/>
<path d="M721.329 237.669L658.354 218.752L689.43 160.767C692.106 155.832 691.077 149.869 687.166 145.962L646.829 105.66C642.919 101.753 636.951 100.931 632.012 103.398L573.976 134.447L555.043 71.5271C553.396 66.1809 548.457 62.4797 542.901 62.4797H485.894C480.337 62.4797 475.398 66.1809 473.752 71.5271L454.818 134.447L396.783 103.398C391.843 100.725 385.875 101.753 381.965 105.66L341.628 145.962C337.718 149.869 336.895 155.832 339.364 160.767L370.44 218.752L307.465 237.669C302.115 239.314 298.41 244.249 298.41 249.801V306.758C298.41 312.31 302.115 317.245 307.465 318.89L370.44 337.807L339.57 395.587C336.895 400.522 337.924 406.485 341.834 410.392L382.171 450.694C386.081 454.6 392.049 455.423 396.988 452.956L455.024 421.907L473.958 484.827C475.604 490.173 480.543 493.874 486.1 493.874H543.106C548.663 493.874 553.602 490.173 555.249 484.827L574.182 421.907L632.218 452.956C637.157 455.629 643.125 454.6 647.035 450.694L687.372 410.392C691.282 406.485 692.106 400.522 689.636 395.587L658.56 337.602L721.535 318.684C726.886 317.039 730.59 312.105 730.59 306.553V249.596C730.384 244.044 726.68 239.314 721.329 237.669Z" fill="#9AB8E1"/>
<path d="M514.5 460.152C608.838 460.152 685.314 383.742 685.314 289.486C685.314 195.23 608.838 118.82 514.5 118.82C420.162 118.82 343.686 195.23 343.686 289.486C343.686 383.742 420.162 460.152 514.5 460.152Z" fill="#9AB8E1"/>
<path d="M514.5 448.843C608.838 448.843 685.314 372.433 685.314 278.177C685.314 183.921 608.838 107.511 514.5 107.511C420.162 107.511 343.686 183.921 343.686 278.177C343.686 372.433 420.162 448.843 514.5 448.843Z" fill="#CDDBF0"/>
<path d="M514.5 411.214C588.038 411.214 647.653 351.651 647.653 278.177C647.653 204.702 588.038 145.14 514.5 145.14C440.962 145.14 381.348 204.702 381.348 278.177C381.348 351.651 440.962 411.214 514.5 411.214Z" fill="#9AB8E1"/>
<path d="M514.501 378.109C561.67 378.109 599.908 339.904 599.908 292.776C599.908 245.648 561.67 207.443 514.501 207.443C467.332 207.443 429.094 245.648 429.094 292.776C429.094 339.904 467.332 378.109 514.501 378.109Z" fill="#477A9B"/>
<path d="M514.501 363.51C561.67 363.51 599.908 325.305 599.908 278.177C599.908 231.049 561.67 192.844 514.501 192.844C467.332 192.844 429.094 231.049 429.094 278.177C429.094 325.305 467.332 363.51 514.501 363.51Z" fill="#CDDBF0"/>
<path d="M528.66 315.494C549.281 307.691 559.667 284.663 551.857 264.059C544.047 243.456 520.998 233.08 500.377 240.883C479.756 248.686 469.37 271.715 477.181 292.318C484.991 312.921 508.039 323.298 528.66 315.494Z" fill="#9AB8E1"/>
<path d="M514.5 159.944C585.501 159.944 643.331 215.668 647.241 285.579C647.447 283.112 647.653 280.644 647.653 278.177C647.653 204.77 588.177 145.14 514.5 145.14C440.824 145.14 381.348 204.564 381.348 278.177C381.348 280.644 381.553 283.112 381.759 285.579C385.669 215.462 443.499 159.944 514.5 159.944Z" fill="#477A9B"/>
<path d="M514.499 252.886C534.05 252.886 550.308 267.073 553.807 285.579C554.218 283.112 554.63 280.85 554.63 278.177C554.63 256.175 536.725 238.286 514.705 238.286C492.684 238.286 474.779 256.175 474.779 278.177C474.779 280.644 474.985 283.112 475.603 285.579C478.69 266.868 494.948 252.886 514.499 252.886Z" fill="#477A9B"/>
<path d="M551.752 127.662C551.752 127.662 561.425 116.969 564.306 116.764C567.187 116.558 565.129 150.28 565.129 150.28C565.129 150.28 554.427 148.635 553.398 146.373C552.369 144.111 551.752 127.662 551.752 127.662Z" fill="#FFDBC5"/>
<path d="M542.283 132.597L551.75 127.662L561.011 151.308L551.956 156.86L542.283 132.597Z" fill="#FFFDFF"/>
<path d="M556.69 140.205L550.928 154.393L551.957 156.86L561.012 151.308L556.69 140.205Z" fill="#81A6D9"/>
<path d="M564.717 32.0475C564.717 32.0475 556.485 27.1126 558.132 20.1214C559.778 13.1303 567.187 3.6717 570.686 2.6436C574.184 1.82111 574.802 4.49419 574.802 4.49419C574.802 4.49419 580.152 0.998616 583.239 2.43797C586.326 3.87732 584.063 7.78414 584.063 7.78414C584.063 7.78414 598.263 7.57852 606.083 12.9247C613.904 18.2708 617.814 27.5238 618.02 38.2162C618.431 48.9085 615.138 58.3671 615.138 58.3671L601.35 63.5076L564.717 32.0475Z" fill="#545172"/>
<path d="M575.005 95.7902C575.005 95.7902 564.509 111.623 562.451 116.558C560.393 121.493 550.103 192.844 550.103 192.844C550.103 192.844 545.988 193.049 546.193 195.722C546.399 198.396 546.193 200.04 546.193 200.04L521.703 217.107L534.668 248.978L561.834 230.061L553.602 270.569H560.805L555.248 459.124H653.209L642.919 405.457L644.771 291.131H646.418C646.418 291.131 665.146 221.631 665.763 211.35C666.586 201.069 648.682 114.707 644.154 108.744C639.627 102.781 612.667 86.9485 612.667 86.9485L575.005 95.7902Z" fill="#E58C7E"/>
<path d="M622.958 141.027C622.958 141.027 631.396 182.974 633.454 195.106C635.512 207.237 627.074 208.677 631.19 211.555C635.512 214.434 635.512 214.434 635.512 214.434C635.512 214.434 628.515 217.93 629.338 219.986C630.161 221.836 632.631 225.949 632.631 225.949L619.254 282.906L620.489 283.729L644.979 291.131L643.538 374.613C643.538 374.613 617.813 349.322 616.99 338.835C615.961 328.349 613.08 312.104 613.08 312.104L605.26 318.479L589.207 305.113L591.471 343.565C591.471 343.565 586.326 327.732 582.416 310.871C578.506 294.01 560.189 287.635 560.189 287.635L560.601 270.98L573.772 271.597L580.358 258.232L596.204 281.467C596.204 281.467 607.729 278.382 610.199 278.177C612.668 277.971 620.283 254.119 622.958 241.782C625.84 229.444 619.254 221.22 622.135 212.378C625.222 203.33 626.251 212.378 627.486 193.049C629.338 173.515 619.048 141.027 622.958 141.027Z" fill="#935771"/>
<path d="M610.815 85.9204C610.815 85.9204 597.232 105.043 592.91 119.642C588.589 134.242 579.945 180.506 579.945 180.506C579.945 180.506 570.478 143.906 571.919 121.287C573.359 98.4633 575.212 95.7903 575.212 95.7903L610.815 85.9204Z" fill="#81A6D9"/>
<path d="M579.534 101.753L572.742 110.184C572.742 110.184 573.771 97.4352 575.006 95.7903C581.386 86.9485 610.815 85.9204 610.815 85.9204L595.38 113.062L587.971 101.753H579.534Z" fill="#FFFDFF"/>
<path d="M612.255 61.8627L611.02 85.9205L588.177 101.753H579.739L577.269 94.7622C577.269 94.7622 579.533 80.7799 576.652 69.882C573.565 60.0122 612.255 61.8627 612.255 61.8627Z" fill="#FFDBC5"/>
<path d="M576.242 69.882C578.3 77.6957 577.682 86.9487 577.271 91.678C598.674 85.9206 611.845 65.7696 611.845 65.7696L612.051 61.8628C605.054 62.4797 587.972 63.0965 578.3 65.564C576.653 66.7977 575.83 68.0315 576.242 69.882Z" fill="#CC9879"/>
<path d="M541.667 130.952C541.667 130.952 513.884 149.252 507.299 151.308C500.713 153.364 500.507 147.813 497.214 152.747C493.922 157.477 493.098 157.066 488.982 154.598C484.866 152.131 450.086 117.997 445.147 114.707C440.208 111.418 434.651 111.829 434.651 111.829L392.874 106.688C392.874 106.688 381.76 118.409 376.821 122.315C371.882 126.222 361.798 133.83 363.65 147.813C365.296 161.795 381.966 194.9 381.966 194.9L387.934 247.539L381.76 297.916L390.816 299.15L384.436 459.124H491.04L478.281 296.888L484.455 293.393L471.901 249.184L479.104 229.444L466.344 225.332L462.846 174.132C462.846 174.132 497.214 194.283 505.035 192.844C512.855 191.404 552.986 158.711 552.986 158.711L541.667 130.952Z" fill="#477A9B"/>
<path d="M392.873 106.483L400.282 109.567C403.575 111.006 406.044 113.474 407.691 116.558L443.911 190.376L434.65 111.623L392.873 106.483Z" fill="#FFFDFF"/>
<path d="M429.918 84.0698L430.329 90.6497C430.741 97.8465 432.182 104.838 434.445 111.623L432.387 119.231L426.008 120.67L392.668 106.483C392.668 106.483 398.019 98.6689 394.726 71.5269C391.639 44.5904 429.918 84.0698 429.918 84.0698Z" fill="#FFDBC5"/>
<path d="M426.007 120.671L395.343 97.6409L392.873 106.483L409.337 120.465L426.007 120.671Z" fill="#FFFDFF"/>
<path d="M395.343 75.6394C395.549 76.6675 395.549 77.6957 395.549 78.7238C402.546 86.1261 420.451 104.426 432.799 106.277C431.564 101.137 430.741 95.996 430.329 90.8554L429.918 84.2756C429.918 84.2756 391.639 44.7962 394.726 71.9383C395.138 72.9664 395.138 74.2001 395.343 75.6394Z" fill="#CC9879"/>
<path d="M438.561 45.6186C438.561 45.6186 441.854 37.8049 440.825 29.9913C439.796 21.9721 435.886 15.8034 431.975 14.3641C428.065 12.9247 426.419 13.9528 426.419 13.9528C426.419 13.9528 423.743 3.67172 412.013 7.37291C400.282 11.0741 393.079 25.262 383.201 28.9632C373.322 32.6644 369.412 32.4588 369.412 37.1881C369.412 41.9174 378.056 45.8242 378.056 45.8242C378.056 45.8242 378.673 68.6482 390.404 72.9663C401.929 77.0787 438.561 45.6186 438.561 45.6186Z" fill="#E58C7E"/>
<path d="M424.569 27.7295C424.569 27.7295 434.447 28.3464 436.505 35.7487C438.357 43.1511 441.033 60.629 440.415 69.6763C439.798 76.8731 437.328 86.5373 429.714 91.061C422.099 95.5847 406.664 86.7429 402.137 84.0699C397.609 81.3968 396.374 78.5181 396.374 78.5181C396.374 78.5181 390.818 81.1911 388.554 74.4056C386.29 67.6201 391.023 64.5358 394.11 65.1526C397.197 65.7695 397.197 71.3213 397.197 71.3213L398.432 70.7044C400.079 69.882 401.108 68.237 400.696 66.3864C399.667 59.3952 397.403 42.3286 399.667 39.4499C402.342 35.7487 414.073 39.6555 419.63 36.5712C425.186 33.6925 424.569 27.7295 424.569 27.7295Z" fill="#FFDBC5"/>
<path d="M419.422 141.027L426.007 120.67L432.387 119.437L437.532 137.12L443.706 190.376L419.422 141.027Z" fill="#81A6D9"/>
<path d="M421.07 135.887L426.833 142.878L427.656 157.888L443.708 190.376L438.975 150.691L435.682 141.438L436.917 135.27L432.389 119.437L426.01 120.67L421.07 135.887Z" fill="#F06F76"/>
<path d="M413.454 258.232C417.981 259.054 431.358 260.905 440.002 259.671C448.851 258.437 457.083 264.195 463.051 267.279C469.02 270.158 477.869 272.625 477.869 272.625L472.93 255.353C472.93 255.353 412.013 237.464 405.839 233.351C399.665 229.239 381.555 194.695 381.555 194.695L387.523 247.334C397.195 258.232 409.132 257.409 413.454 258.232Z" fill="#403867"/>
<path d="M503.387 192.844C497.624 189.348 490.833 181.123 481.16 168.992C468.812 153.57 452.76 131.568 452.76 131.568L462.227 174.132C462.227 173.926 493.714 192.227 503.387 192.844Z" fill="#403867"/>
<path d="M465.726 225.126C465.726 225.126 434.032 216.902 433.621 213.817C433.209 210.733 432.18 209.705 430.122 210.527C428.27 211.35 430.122 210.527 428.682 207.032C427.241 203.536 424.977 207.854 422.919 203.33C420.861 198.807 396.988 152.748 395.959 148.429C394.93 144.317 410.983 166.935 413.247 172.898C415.716 178.861 427.653 203.536 434.032 208.06C440.412 212.378 465.108 221.836 465.108 221.836L465.726 225.126Z" fill="#403867"/>
<path d="M390.404 299.15C390.404 299.15 403.37 300.384 417.776 299.767C431.976 299.15 437.944 297.916 437.944 297.916L445.147 281.261C445.147 281.261 453.791 294.01 458.113 295.86C462.434 297.711 484.043 293.393 484.043 293.393L477.869 296.888L478.281 302.029C478.281 302.029 473.548 307.992 468.197 313.132C463.052 318.273 455.437 322.797 455.437 322.797L445.765 385.922V313.338C445.765 313.338 438.356 312.927 427.037 322.385C415.718 331.844 406.045 336.368 399.46 342.948C392.668 349.527 388.141 356.93 388.141 356.93L390.404 299.15Z" fill="#403867"/>
<path d="M426.83 142.878L435.474 141.438C435.474 141.438 431.975 143.7 430.74 148.635C429.505 153.364 433.621 170.637 433.621 170.637L427.242 157.888L426.83 142.878Z" fill="#6F4C61"/>
<path d="M426.01 120.671L424.363 139.794L421.07 135.887L426.01 120.671Z" fill="#6F4C61"/>
<path d="M424.772 23.6172C424.772 23.6172 423.331 11.6911 412.63 17.2429C401.928 22.7947 395.96 33.0758 376.203 34.1039" stroke="#935771" stroke-width="1.0087" stroke-miterlimit="10" stroke-linecap="round"/>
<path d="M418.599 27.7295C418.599 27.7295 415.306 30.8138 402.547 33.2813" stroke="#935771" stroke-width="1.0087" stroke-miterlimit="10" stroke-linecap="round"/>
<path d="M396.167 45.8242C396.167 45.8242 387.524 51.5816 381.35 50.7591" stroke="#935771" stroke-width="1.0087" stroke-miterlimit="10" stroke-linecap="round"/>
<path d="M396.165 54.4602C396.165 54.4602 390.197 59.3951 384.641 59.1895" stroke="#935771" stroke-width="1.0087" stroke-miterlimit="10" stroke-linecap="round"/>
<path d="M394.933 37.3938C394.933 37.3938 386.701 40.0669 380.115 39.2444" stroke="#935771" stroke-width="1.0087" stroke-miterlimit="10" stroke-linecap="round"/>
<path d="M428.064 19.0933C428.064 19.0933 436.296 19.7101 438.149 26.29" stroke="#935771" stroke-width="1.0087" stroke-miterlimit="10" stroke-linecap="round"/>
<path d="M564.718 32.0475C564.718 32.0475 561.837 62.4795 565.747 71.3213C569.657 80.3686 572.127 82.2192 578.095 81.6023C584.063 80.9855 592.089 78.1068 598.881 73.7887C605.466 69.4707 607.318 65.7695 607.318 65.7695C607.318 65.7695 610.817 69.265 614.933 65.3582C619.049 61.4514 619.049 55.8996 614.933 53.0209C610.817 50.1422 607.73 56.9277 607.73 56.9277L602.791 58.5727C602.791 58.5727 605.878 35.5431 602.585 31.8419C599.292 28.1407 591.472 26.907 585.915 30.8138C580.565 34.9262 569.245 34.7206 564.718 32.0475Z" fill="#FFDBC5"/>
<path d="M572.125 135.27C573.771 156.449 579.945 180.506 579.945 180.506C579.945 180.506 585.502 150.691 590.03 131.363L586.943 119.437L593.117 109.773L587.972 101.959H579.534L574.389 108.333L577.27 120.259L572.125 135.27Z" fill="#477A9B"/>
<path d="M597.645 149.252C597.645 149.252 603.407 135.27 605.053 135.27C606.7 135.27 610.816 145.139 610.816 145.139C610.816 145.139 614.314 142.878 615.549 143.494C616.784 144.111 615.961 149.252 615.961 149.252H597.645Z" fill="#FFFDFF"/>
<path d="M617.605 294.215C617.605 294.215 613.695 303.674 611.637 307.581C609.579 311.488 604.64 316.834 605.052 318.273C605.463 319.712 611.843 318.273 611.843 318.273C611.843 318.273 611.431 325.059 612.872 333.078C614.313 341.097 615.753 341.92 617.194 341.303C618.634 340.891 618.634 339.658 618.634 339.658C618.634 339.658 619.663 341.508 621.31 341.508C622.956 341.508 623.368 339.863 623.368 339.863C623.368 339.863 624.603 341.303 626.249 340.891C627.895 340.48 630.982 335.957 631.806 333.078C632.629 330.199 633.452 328.349 633.452 328.349C633.452 328.349 631.188 335.545 631.806 336.985C632.423 338.424 635.922 337.396 637.98 331.022C639.42 326.704 641.067 319.918 641.684 313.132C642.301 306.347 641.89 301.412 641.89 301.412C641.89 301.412 632.629 289.486 617.605 294.215Z" fill="#FFDBC5"/>
<path d="M644.773 291.131C644.773 291.131 643.538 287.841 633.248 285.579C622.958 283.317 620.283 283.728 620.283 283.728L617.607 294.421C617.607 294.421 623.987 294.626 631.19 296.683C638.393 298.739 641.686 301.823 641.686 301.823L644.773 291.131Z" fill="#FFFDFF"/>
<path d="M611.846 318.479C611.846 318.479 612.257 311.488 612.875 305.113C612.463 306.141 612.052 306.964 611.64 307.786C611.434 307.992 611.434 308.198 611.228 308.403C611.228 310.665 610.817 314.366 609.582 316.011C608.759 317.245 607.112 318.273 605.672 319.096C607.524 319.507 611.846 318.479 611.846 318.479Z" fill="#CC9879"/>
<path d="M634.689 333.078C633.248 331.227 635.306 324.031 635.306 324.031C635.306 324.031 634.277 326.704 633.042 329.582C632.425 331.639 631.396 335.957 631.807 336.985C632.219 338.218 634.689 337.602 636.747 333.9C635.923 333.9 635.306 333.9 634.689 333.078Z" fill="#CC9879"/>
<path d="M632.424 330.816C631.395 333.284 630.16 335.545 629.749 335.957C628.514 336.985 626.867 337.19 625.838 335.545C624.809 333.9 629.337 322.591 628.514 322.797C627.485 323.002 623.986 334.312 623.986 335.134C623.78 335.957 622.957 336.985 621.928 337.19C620.899 337.396 619.664 337.396 619.459 335.545C619.253 333.695 621.311 320.124 620.488 320.124C619.664 320.124 618.43 332.667 618.43 332.667C618.43 332.667 618.224 335.545 615.754 335.751C614.314 335.957 613.49 334.723 612.873 333.9C614.314 341.097 615.754 341.92 616.989 341.508C618.43 341.097 618.43 339.863 618.43 339.863C618.43 339.863 619.459 341.714 621.105 341.714C622.751 341.714 623.163 340.069 623.163 340.069C623.163 340.069 624.398 341.508 626.044 341.097C627.691 340.686 630.778 336.162 631.601 333.284C632.012 332.05 632.218 331.433 632.424 330.816Z" fill="#CC9879"/>
<path d="M529.936 237.052C529.936 237.052 550.31 228.211 550.31 225.332C550.31 222.453 542.695 219.78 544.547 215.462C546.4 211.144 554.22 218.341 556.072 215.462C557.924 212.583 549.281 204.975 550.516 202.508C551.75 200.04 555.866 205.181 557.719 203.947C559.571 202.713 563.481 164.468 563.481 164.468C563.481 164.468 564.922 214.228 564.922 217.929C564.922 221.836 562.04 229.855 562.04 229.855L534.875 248.773L529.936 237.052Z" fill="#935771"/>
<path d="M528.909 248.773C528.909 248.773 521.5 258.231 516.972 263.372C512.445 268.513 504.624 274.27 500.92 274.27C497.216 274.27 497.627 268.307 497.627 268.307C497.627 268.307 493.1 272.008 489.395 269.952C485.691 267.896 487.543 264.194 487.543 264.194C487.543 264.194 484.662 266.251 481.781 265.223C478.899 263.989 480.34 257.615 480.34 257.615C480.34 257.615 478.488 259.876 476.43 259.876C474.372 259.671 469.844 258.643 472.725 252.68C475.607 246.717 486.102 240.548 491.247 237.669C496.392 234.791 514.297 232.734 514.297 232.734C514.297 232.734 531.173 240.137 528.909 248.773Z" fill="#CC9879"/>
<path d="M488.16 233.351C488.16 233.351 492.688 228.827 495.158 228.211C497.627 227.799 505.653 230.061 505.653 230.061L508.74 240.548C508.74 240.548 516.561 244.044 519.442 244.866C522.323 245.688 529.32 250.418 529.526 252.68C529.732 254.941 525.616 255.353 523.558 254.53C521.5 253.708 517.59 251.652 517.59 251.652C517.59 251.652 511.416 250.623 510.593 251.652C509.769 252.885 523.146 257.615 523.558 258.643C523.97 259.671 524.175 261.316 522.323 262.961C520.677 264.606 517.59 264.4 517.59 264.4C517.59 264.4 516.972 265.839 514.709 266.868C512.445 268.101 510.387 267.69 510.387 267.69C510.387 267.69 508.74 269.746 504.419 269.541C500.097 269.335 479.723 256.381 479.723 256.381L488.16 233.351Z" fill="#FFDBC5"/>
<path d="M505.651 230.061C505.651 230.061 503.388 229.445 500.918 228.828L497.008 237.258L506.063 231.501L505.651 230.061Z" fill="#CC9879"/>
<path d="M494.129 250.212C494.129 250.212 497.422 253.708 502.773 251.24C508.123 248.773 510.181 244.249 510.181 244.249C510.181 244.249 516.355 245.277 518.413 242.193C520.471 239.108 507.094 235.407 507.094 235.407L494.129 250.212Z" fill="#CC9879"/>
<path d="M516.767 225.127C516.767 225.127 513.063 223.276 510.799 224.098C508.535 224.921 498.863 232.529 497.01 237.258C495.158 241.987 494.747 247.745 493.923 249.39C493.1 251.035 498.863 252.68 501.744 249.595C504.625 246.511 507.918 240.754 507.918 240.754C507.918 240.754 519.031 245.689 523.353 238.492C527.675 231.501 516.767 225.127 516.767 225.127Z" fill="#FFDBC5"/>
<path d="M522.529 262.961C522.94 262.549 523.352 262.138 523.558 261.727C522.734 262.344 521.294 262.961 519.853 262.961C517.384 262.961 508.123 258.437 507.711 258.848C507.299 259.259 517.795 264.606 517.795 264.606C517.795 264.606 520.882 264.606 522.529 262.961Z" fill="#CC9879"/>
<path d="M515.119 266.867C515.324 266.662 515.53 266.662 515.53 266.456C514.707 266.456 513.678 266.456 512.443 266.045C508.739 265.222 503.388 260.699 502.771 261.316C502.153 261.933 510.591 267.279 510.591 267.279C510.591 267.279 512.855 268.101 515.119 266.867Z" fill="#CC9879"/>
<path d="M508.328 268.924C507.093 268.718 505.859 268.307 504.212 267.69C498.861 265.839 485.69 257.203 480.751 253.913L479.928 256.175C479.928 256.175 500.302 269.335 504.624 269.335C506.064 269.541 507.299 269.335 508.328 268.924Z" fill="#CC9879"/>
<path d="M480.957 257.409C480.957 257.409 483.221 256.998 484.661 257.82C486.308 258.437 488.16 261.11 487.542 262.55C486.925 263.989 483.838 264.194 481.78 263.166C479.928 261.933 479.928 258.231 480.957 257.409Z" fill="#FFDBC5"/>
<path d="M489.187 263.372C489.187 263.372 490.833 261.933 493.509 263.372C496.184 264.812 496.802 266.662 495.978 267.896C495.155 269.13 493.097 269.335 490.833 267.485C488.569 265.634 488.569 264.195 489.187 263.372Z" fill="#FFDBC5"/>
<path d="M499.274 268.101C499.274 268.101 501.538 267.279 503.801 268.307C506.065 269.541 505.653 270.98 503.801 271.802C501.949 272.831 498.039 270.158 499.274 268.101Z" fill="#FFDBC5"/>
<path d="M478.28 230.061L488.365 233.351C488.365 233.351 484.66 247.539 482.602 252.063C480.338 256.587 479.515 256.998 479.515 256.998L469.637 254.119L478.28 230.061Z" fill="#FFFDFF"/>
<path d="M522.939 219.574L516.354 223.07C516.354 223.07 519.235 233.968 521.91 239.52C524.586 245.072 528.907 248.773 528.907 248.773L533.641 246.1L522.939 219.574Z" fill="#FFFDFF"/>
<path d="M523.969 243.221C526.438 246.717 528.908 248.979 528.908 248.979L533.641 246.305L530.554 238.903L523.969 243.221Z" fill="#81A6D9"/>
<path d="M471.9 246.922L469.225 254.119L479.103 256.998C479.103 256.998 479.926 256.587 482.19 252.063C482.396 251.652 482.602 251.035 482.807 250.418L471.9 246.922Z" fill="#81A6D9"/>
<path d="M637.365 298.739C640.452 300.178 641.893 301.618 641.893 301.618L644.98 291.131C644.98 291.131 644.362 289.486 640.452 287.841L637.365 298.739Z" fill="#81A6D9"/>
<path d="M463.877 249.184C465.354 249.184 466.552 247.987 466.552 246.511C466.552 245.035 465.354 243.838 463.877 243.838C462.399 243.838 461.201 245.035 461.201 246.511C461.201 247.987 462.399 249.184 463.877 249.184Z" fill="#FFC672"/>
<path d="M459.14 244.455C459.14 245.894 457.905 247.128 456.464 247.128C455.024 247.128 453.789 245.894 453.789 244.455C453.789 243.015 455.024 241.782 456.464 241.782C457.905 241.782 459.14 243.015 459.14 244.455Z" fill="#FFC672"/>
<path d="M451.732 242.193C451.732 243.632 450.497 244.866 449.056 244.866C447.616 244.866 446.381 243.632 446.381 242.193C446.381 240.754 447.616 239.52 449.056 239.52C450.703 239.52 451.732 240.754 451.732 242.193Z" fill="#FFC672"/>
<path d="M579.536 101.753L575.214 111.212L574.391 108.127L579.536 101.753Z" fill="#403867"/>
<path d="M587.971 101.753L589.823 110.595L584.884 119.231H580.15C580.15 119.231 584.472 124.166 585.913 129.512C587.354 134.858 585.707 150.897 585.707 150.897L590.029 131.363L586.942 119.437L593.116 109.772L587.971 101.753Z" fill="#403867"/>
<path d="M608.141 37.188H615.549" stroke="#3C3966" stroke-width="1.0352" stroke-miterlimit="10" stroke-linecap="round"/>
<path d="M608.141 43.7678H614.52" stroke="#3C3966" stroke-width="1.0352" stroke-miterlimit="10" stroke-linecap="round"/>
<path d="M581.18 199.424C582.544 199.424 583.65 198.319 583.65 196.956C583.65 195.593 582.544 194.489 581.18 194.489C579.817 194.489 578.711 195.593 578.711 196.956C578.711 198.319 579.817 199.424 581.18 199.424Z" fill="#935771"/>
<path d="M583.65 222.042C583.65 223.481 582.621 224.509 581.18 224.509C579.74 224.509 578.711 223.481 578.711 222.042C578.711 220.603 579.74 219.574 581.18 219.574C582.415 219.574 583.65 220.603 583.65 222.042Z" fill="#935771"/>
<path d="M172.46 53.8435H64.6211V259.465H172.46V53.8435Z" fill="#0096F1"/>
<path d="M923.013 0.587402H815.174V273.653H923.013V0.587402Z" fill="#40EF86"/>
<path d="M343.482 487.706C343.482 487.706 333.603 504.155 348.009 517.109C362.415 530.064 390.198 496.547 390.198 496.547L359.534 478.864L343.482 487.706Z" fill="#FFDBC5"/>
<path d="M390.198 496.341L359.534 478.658L343.482 487.705C343.482 487.705 341.012 491.818 340.395 497.781C342.247 498.603 344.511 499.426 347.598 499.426C355.006 499.631 359.74 496.958 367.56 499.426C372.088 500.865 376.821 504.566 379.908 507.445C385.876 501.688 390.198 496.341 390.198 496.341Z" fill="#CC9879"/>
<path d="M664.734 347.677C664.734 347.677 648.682 343.976 634.481 336.779C620.487 329.582 606.699 326.909 597.438 325.881C588.177 324.853 542.695 316.011 526.231 322.591C509.767 329.171 576.24 480.509 576.24 480.509L663.705 487.294C663.705 487.294 693.135 479.069 700.543 467.143C707.952 455.217 664.734 347.677 664.734 347.677Z" fill="#FFDBC5"/>
<path d="M609.373 405.868C609.373 405.868 623.779 415.532 632.834 414.298C641.889 413.065 647.446 410.186 647.446 410.186L643.742 423.14C643.742 423.14 654.032 443.291 660 450.488C665.968 457.685 671.525 460.975 671.525 460.975C671.525 460.975 677.699 459.33 679.757 449.254C681.815 439.179 684.49 414.71 684.49 414.71L700.337 467.554C700.337 467.554 697.044 472.901 689.635 476.807C682.02 480.714 674.2 484.004 674.2 484.004L609.373 405.868Z" fill="#CC9879"/>
<path d="M725.857 312.721L663.705 344.181L703.219 476.396L761.254 453.161L725.857 312.721Z" fill="#FFFDFF"/>
<path d="M748.702 403.4L745.203 420.261C743.145 430.542 735.736 438.973 725.858 442.469L696.223 452.955L703.22 476.396L761.255 453.161L748.702 403.4Z" fill="#81A6D9"/>
<path d="M403.575 346.443C403.575 346.443 424.567 338.424 438.15 334.928C451.938 331.433 484.043 308.814 493.304 305.73C502.565 302.646 542.696 321.152 542.696 321.152L539.197 375.641C539.197 375.641 540.638 379.754 546.812 381.81C552.986 383.866 590.647 399.905 600.937 401.755C611.227 403.4 640.451 434.244 647.654 443.497C654.857 452.75 673.791 479.069 674.82 486.06C675.849 492.846 665.147 500.865 661.854 503.538C658.356 506.211 650.124 503.538 650.124 503.538C650.124 503.538 639.216 523.278 626.868 524.717C614.52 526.157 606.7 523.072 606.7 523.072C606.7 523.072 600.937 536.232 588.178 540.756C575.418 545.279 563.893 540.756 563.893 540.756C563.893 540.756 552.986 553.71 540.021 556.794C527.055 559.879 440.413 525.54 408.103 512.791C375.792 500.043 360.975 486.883 360.975 486.883L403.575 346.443Z" fill="#FFDBC5"/>
<path d="M393.49 463.236C384.434 439.59 382.994 414.915 382.994 414.915L361.385 486.883C361.385 486.883 375.997 500.248 408.513 512.791C441.029 525.334 527.465 559.878 540.431 556.794C541.666 556.588 542.9 556.177 543.929 555.766C507.709 530.68 400.898 482.359 393.49 463.236Z" fill="#CC9879"/>
<path d="M542.9 321.152C542.9 321.152 539.813 319.712 535.286 317.862C522.938 320.946 495.978 327.937 488.981 332.667C479.72 338.835 443.293 380.371 443.293 380.371L542.694 325.881L542.9 321.152Z" fill="#CC9879"/>
<path d="M0 133.213L367.353 321.152L297.381 490.79L0 401.961V133.213Z" fill="#39C9FE"/>
<path d="M362.619 332.667L404.397 341.714C404.397 341.714 396.165 399.288 383.405 434.861C374.761 458.918 359.532 490.995 359.532 490.995L301.908 479.892L362.619 332.667Z" fill="#FFFDFF"/>
<path d="M1029 133.419L724.416 305.525C724.416 305.525 736.147 367.211 744.379 398.054C752.611 428.898 766.399 467.349 766.399 467.349L1029 371.529V133.419Z" fill="#EF5DA8"/>
<path d="M550.517 320.329C550.517 320.329 530.76 320.124 511.62 327.32C492.481 334.517 491.864 336.162 486.101 341.303C480.339 346.443 467.579 361.454 457.083 369.678C446.588 377.903 440.002 382.016 440.002 385.1C440.002 388.184 450.292 404.017 466.344 403.4C482.397 402.784 504.006 387.979 504.006 387.979L534.464 377.492C534.464 377.492 571.92 396.204 596.41 400.727C620.9 405.251 550.517 320.329 550.517 320.329Z" fill="#FFDBC5"/>
<path d="M441.236 387.979C441.236 387.979 453.996 396.615 468.814 396.409C483.631 396.204 494.127 387.362 498.449 383.044C502.771 378.726 507.71 369.884 507.71 369.884V378.109C507.71 378.109 527.055 377.286 541.667 369.884C556.279 362.482 565.54 347.471 565.54 347.471C565.54 347.471 564.922 356.519 562.453 363.921C559.983 371.323 561.424 379.343 569.656 385.511C577.888 391.68 593.117 399.699 593.117 399.699L536.316 376.875L504.211 387.773C504.211 387.773 467.99 421.289 441.236 387.979Z" fill="#CC9879"/>
<path d="M627.072 524.717C629.542 524.306 632.011 523.278 634.481 521.839C629.542 522.044 621.104 521.633 609.373 517.315C594.35 511.969 531.375 487.294 531.375 487.294L607.109 523.278C607.109 523.072 614.724 526.157 627.072 524.717Z" fill="#CC9879"/>
<path d="M559.981 545.279C562.656 542.812 564.303 540.756 564.303 540.756L513.676 521.839L559.981 545.279Z" fill="#CC9879"/>
<path d="M539.401 422.112C539.401 422.112 526.435 423.757 520.879 422.729C515.116 421.906 502.562 410.803 502.562 410.803C502.562 410.803 518.409 419.439 523.554 418.205C528.699 416.971 528.699 406.69 528.699 406.69C528.699 406.69 548.044 420.261 539.401 422.112Z" fill="#CC9879"/>
<path d="M485.482 458.096C485.482 458.096 509.561 471.255 514.912 472.695C520.468 474.134 524.584 473.312 524.584 468.994C524.584 464.676 520.88 461.591 520.88 461.591C520.88 461.591 521.292 466.937 514.912 467.143C508.532 467.349 485.482 458.096 485.482 458.096Z" fill="#CC9879"/>
<path d="M588.589 540.961C588.589 540.961 588.589 540.756 588.589 540.961C569.038 541.99 550.311 535.615 550.311 535.615C550.311 535.615 555.456 539.728 562.247 543.223C563.688 541.784 564.305 540.961 564.305 540.961C564.305 540.961 575.624 545.485 588.589 540.961Z" fill="#CC9879"/>
<path d="M502.565 500.865H498.037L476.223 488.322C476.223 488.322 493.304 503.333 496.597 504.361C500.301 505.389 502.565 500.865 502.565 500.865Z" fill="#CC9879"/>
<path d="M648.682 506.211C648.682 506.211 648.065 499.426 640.656 493.668C633.247 487.911 558.336 444.73 558.336 444.73L606.905 453.161C606.905 453.161 615.754 462.003 620.282 465.704C624.809 469.405 632.424 473.106 632.424 473.106C632.424 473.106 638.392 483.387 642.508 490.378C646.624 497.37 650.329 503.538 650.329 503.538L648.682 506.211Z" fill="#CC9879"/>
<path d="M393.488 506.417C393.488 506.417 393.488 516.904 404.19 522.25C415.097 527.596 426.416 525.951 430.121 518.96C433.825 511.969 428.063 499.837 420.037 496.342C412.01 493.052 396.987 490.995 393.488 506.417Z" fill="#FFDBC5"/>
<path d="M406.248 518.343C395.34 512.997 395.546 502.51 395.546 502.51C395.752 501.688 395.958 500.865 396.164 500.248C395.135 501.893 394.106 503.949 393.488 506.417C393.488 506.417 393.488 516.904 404.19 522.25C415.097 527.596 426.416 525.951 430.121 518.96C430.532 518.343 430.738 517.521 430.944 516.698C426.416 522.25 416.126 523.072 406.248 518.343Z" fill="#CC9879"/>
<path d="M460.17 511.146C460.17 511.146 446.381 506.211 438.149 512.586C430.123 518.96 431.563 531.092 443.5 536.849C455.436 542.606 466.344 539.522 469.431 531.092C472.518 522.867 469.225 514.436 460.17 511.146Z" fill="#FFDBC5"/>
<path d="M445.35 532.736C437.324 528.83 434.031 522.044 435.266 516.081C431.15 522.661 433.825 532.12 443.704 536.849C455.64 542.606 466.547 539.522 469.634 531.091C469.84 530.475 470.046 529.858 470.252 529.241C465.93 536.026 456.052 538.083 445.35 532.736Z" fill="#CC9879"/>
<path d="M468.4 538.494C468.4 538.494 466.754 548.569 482.6 554.944C492.89 559.056 502.151 556.794 505.033 550.831C507.914 544.868 502.357 532.942 494.743 529.652C487.128 526.362 473.957 524.306 468.4 538.494Z" fill="#FFDBC5"/>
<path d="M483.835 550.831C471.281 545.896 469.635 538.494 469.635 535.615C469.223 536.438 468.606 537.26 468.4 538.288C468.4 538.288 466.754 548.364 482.6 554.738C492.89 558.851 502.151 556.589 505.033 550.626C505.444 549.803 505.65 548.775 505.856 547.747C502.357 553.093 493.508 554.738 483.835 550.831Z" fill="#CC9879"/>
<path d="M337.1 394.353L299.645 441.235C290.178 452.955 274.331 457.684 260.131 452.955L0 361.865V402.167L297.381 490.995L337.1 394.353Z" fill="#38ABD6"/>
<path d="M320.019 435.478L301.908 479.686L359.532 490.79C359.532 490.79 364.06 481.331 369.616 468.788L342.451 459.33C331.543 455.423 323.311 446.581 320.019 435.478Z" fill="#81A6D9"/>
<path d="M751.58 423.346C758.783 446.375 766.192 467.143 766.192 467.143L1029 371.529V323.619L812.291 416.56C793.152 424.785 772.16 427.047 751.58 423.346Z" fill="#D85698"/>
<path d="M252.723 454.394C262.385 454.394 270.217 446.569 270.217 436.917C270.217 427.264 262.385 419.439 252.723 419.439C243.062 419.439 235.23 427.264 235.23 436.917C235.23 446.569 243.062 454.394 252.723 454.394Z" fill="#FFC672"/>
<path d="M263.22 436.916C263.22 442.674 258.487 447.403 252.724 447.403C246.962 447.403 242.229 442.674 242.229 436.916C242.229 431.159 246.962 426.43 252.724 426.43C258.487 426.43 263.22 431.159 263.22 436.916Z" fill="#BF9556"/>
<path d="M221.13 423.464C223.321 414.063 217.47 404.668 208.061 402.478C198.652 400.289 189.248 406.135 187.057 415.536C184.866 424.937 190.717 434.332 200.126 436.522C209.535 438.711 218.939 432.865 221.13 423.464Z" fill="#FFC672"/>
<path d="M214.648 419.439C214.648 425.196 209.914 429.925 204.152 429.925C198.39 429.925 193.656 425.196 193.656 419.439C193.656 413.681 198.39 408.952 204.152 408.952C209.914 408.952 214.648 413.681 214.648 419.439Z" fill="#BF9556"/>
<path d="M168.515 413.716C175.013 406.573 174.485 395.519 167.336 389.027C160.187 382.534 149.123 383.062 142.625 390.205C136.127 397.348 136.655 408.402 143.804 414.894C150.953 421.386 162.017 420.859 168.515 413.716Z" fill="#FFC672"/>
<path d="M166.081 401.961C166.081 407.718 161.348 412.448 155.586 412.448C149.823 412.448 145.09 407.718 145.09 401.961C145.09 396.204 149.823 391.474 155.586 391.474C161.348 391.474 166.081 396.204 166.081 401.961Z" fill="#BF9556"/>
<path d="M227.74 43.5616C227.74 43.5616 232.474 39.6548 231.033 33.6917C229.593 27.7287 228.152 19.7094 227.74 17.0364C227.329 14.3633 237.825 10.6621 241.323 14.9801C244.822 19.2982 245.233 27.1118 247.497 28.1399C249.761 29.168 268.694 18.0645 271.987 19.7094C275.28 21.3544 278.367 53.8427 276.927 57.5438C275.486 61.245 255.523 69.0587 252.642 69.0587C249.761 69.0587 243.998 63.3013 237.413 65.9743C230.827 68.6474 227.74 43.5616 227.74 43.5616Z" fill="#CDDBF0"/>
<path d="M229.182 38.8321L240.501 67.2079C241.324 69.4698 240.295 71.9372 238.031 72.9654L225.271 78.3115C223.008 79.3396 220.538 78.1059 219.509 76.0497L207.367 47.8795C206.338 45.6177 207.573 42.9446 209.836 41.9165L223.419 36.5703C225.683 35.3366 228.153 36.5703 229.182 38.8321Z" fill="#477A9B"/>
<path d="M743.968 231.501C738 230.267 734.295 224.509 735.53 218.752L741.087 191.404L762.284 195.722L756.727 223.07C755.698 229.033 749.936 232.734 743.968 231.501Z" fill="#403867"/>
<path d="M750.758 223.481L741.086 221.631C732.237 219.78 726.474 211.144 728.12 202.302L732.442 180.301L774.22 188.731L769.898 210.733C768.251 219.575 759.608 225.332 750.758 223.481Z" fill="#CDDBF0"/>
<path d="M763.05 200.554C781.752 197.313 794.268 179.447 791.005 160.649C787.741 141.851 769.935 129.24 751.232 132.481C732.53 135.722 720.015 153.588 723.278 172.386C726.541 191.184 744.348 203.795 763.05 200.554Z" fill="#FFC672"/>
<path d="M732.234 197.779C732.234 197.779 745.611 211.35 767.426 204.77" stroke="#81A6D9" stroke-miterlimit="10" stroke-linecap="round"/>
<path d="M730.385 207.854C730.385 207.854 743.762 221.425 765.577 214.845" stroke="#81A6D9" stroke-miterlimit="10" stroke-linecap="round"/>
<path d="M766.194 171.665C763.313 171.254 759.814 172.693 758.991 176.6L757.756 182.768C755.698 182.563 752.817 181.946 750.142 181.123L751.377 175.16C752.2 171.254 749.524 168.581 746.643 167.964C743.968 167.347 740.469 168.375 739.44 172.076C739.234 172.487 739.234 172.899 739.234 173.31C738.823 175.366 739.234 177.217 740.469 178.862C741.91 180.712 744.379 182.152 747.055 183.18L743.968 198.601C744.791 199.013 745.82 199.218 746.643 199.629L749.73 184.619C751.377 185.03 754.258 185.647 757.345 185.853L754.258 201.069C755.287 201.069 756.11 201.274 757.139 201.274L760.226 186.058C763.107 186.058 765.988 185.647 768.046 184.413C769.899 183.385 770.928 181.74 771.339 179.89C771.339 179.478 771.545 179.067 771.545 178.656C771.751 174.338 768.87 172.076 766.194 171.665ZM747.466 180.095C745.408 179.273 743.762 178.245 742.733 176.805C741.91 175.777 741.704 174.749 741.91 173.515C741.91 173.104 742.116 172.899 742.116 172.487C742.733 170.431 744.379 170.02 745.82 170.225H746.026C747.672 170.637 749.113 172.076 748.701 174.132L747.466 180.095ZM766.4 181.74C764.959 182.563 762.901 182.974 760.638 182.974L761.872 177.217C762.284 174.955 764.136 174.338 765.783 174.544H765.988C767.429 174.749 768.664 175.777 768.458 178.039C768.458 178.45 768.458 178.656 768.252 179.067C768.046 180.095 767.429 180.918 766.4 181.74Z" fill="#BF9556"/>
<path d="M782.657 164.674C778.541 167.347 772.367 165.29 768.662 159.739C764.958 154.393 765.37 147.607 769.486 144.934C773.602 142.261 779.776 144.317 783.48 149.869C787.184 155.215 786.773 162 782.657 164.674Z" fill="#FFDDAA"/>
<path d="M739.233 188.32C736.764 189.965 733.059 188.731 731.001 185.441C728.943 182.152 729.149 178.245 731.413 176.6C733.882 174.955 737.587 176.188 739.645 179.478C741.909 182.768 741.703 186.675 739.233 188.32Z" fill="#FFDDAA"/>
<path d="M764.958 127.25C764.135 127.045 763.724 126.428 763.929 125.605L765.782 116.352C765.987 115.53 766.605 115.119 767.428 115.324C768.251 115.53 768.663 116.147 768.457 116.969L766.605 126.222C766.399 126.839 765.782 127.456 764.958 127.25Z" fill="#FFDDAA"/>
<path d="M740.262 130.129C739.439 130.54 738.616 130.129 738.41 129.512L734.5 121.082C734.088 120.259 734.5 119.437 735.117 119.231C735.94 118.82 736.764 119.231 736.969 119.848L740.88 128.279C741.291 128.895 741.085 129.718 740.262 130.129Z" fill="#FFDDAA"/>
<path d="M722.151 146.99C721.74 147.607 720.916 148.018 720.093 147.607L711.861 143.083C711.244 142.672 710.832 141.85 711.244 141.027C711.655 140.41 712.479 139.999 713.302 140.41L721.534 144.934C722.151 145.345 722.357 146.168 722.151 146.99Z" fill="#FFDDAA"/>
<path d="M717.212 171.254C717.212 172.076 716.801 172.693 715.978 172.899L706.717 173.927C705.893 173.927 705.276 173.515 705.07 172.693C705.07 171.87 705.482 171.254 706.305 171.048L715.566 170.02C716.389 169.814 717.007 170.431 717.212 171.254Z" fill="#FFDDAA"/>
<path d="M727.502 193.666C728.119 194.283 727.913 195.106 727.502 195.722L720.504 202.097C719.887 202.714 719.064 202.508 718.446 202.097C717.829 201.48 718.035 200.657 718.446 200.041L725.444 193.666C726.061 193.049 727.09 193.049 727.502 193.666Z" fill="#FFDDAA"/>
<path d="M773.808 202.919C774.631 202.508 775.454 202.919 775.66 203.536L779.57 211.967C779.982 212.789 779.57 213.612 778.953 213.817C778.129 214.228 777.306 213.817 777.1 213.2L773.19 204.77C772.779 204.153 772.984 203.33 773.808 202.919Z" fill="#FFDDAA"/>
<path d="M792.124 186.264C792.535 185.647 793.359 185.236 794.182 185.647L802.414 190.171C803.031 190.582 803.443 191.404 803.031 192.227C802.62 192.844 801.796 193.255 800.973 192.844L792.741 188.32C791.918 187.703 791.712 186.881 792.124 186.264Z" fill="#FFDDAA"/>
<path d="M796.857 161.795C796.857 160.972 797.269 160.356 798.092 160.15L807.353 159.122C808.176 159.122 808.794 159.533 809 160.356C809 161.178 808.588 161.795 807.765 162.001L798.504 163.029C797.681 163.234 797.063 162.617 796.857 161.795Z" fill="#FFDDAA"/>
<path d="M786.565 139.382C785.948 138.765 786.154 137.943 786.565 137.326L793.563 130.952C794.18 130.335 795.003 130.54 795.621 130.952C796.238 131.568 796.032 132.391 795.621 133.008L788.623 139.382C788.006 139.999 787.183 139.999 786.565 139.382Z" fill="#FFDDAA"/>
<path d="M285.239 189.142C284.828 186.058 284.21 182.768 283.181 179.684C276.184 159.327 253.958 148.429 233.583 155.421C218.354 160.561 208.476 174.338 207.241 189.348H207.035V192.227C207.035 196.545 207.653 200.863 209.093 204.975C216.09 225.332 238.317 236.23 258.691 229.239C274.743 223.687 284.828 208.882 285.033 192.844V189.142H285.239Z" fill="#806339"/>
<path d="M284.834 194.183C287.965 172.835 273.183 152.993 251.816 149.864C230.45 146.735 210.59 161.505 207.459 182.853C204.328 204.201 219.11 224.043 240.477 227.172C261.843 230.301 281.703 215.531 284.834 194.183Z" fill="#FFC672"/>
<path d="M261.317 216.087C276.557 207.719 282.123 188.591 273.748 173.364C265.373 158.137 246.229 152.576 230.988 160.944C215.748 169.311 210.182 188.439 218.557 203.666C226.932 218.894 246.076 224.455 261.317 216.087Z" fill="#BF9556"/>
<path d="M235.845 161.383C252.309 155.832 270.214 164.468 275.976 180.918C277.005 183.796 277.417 186.675 277.622 189.759C277.828 186.058 277.211 182.151 275.976 178.244C270.42 161.795 252.309 152.953 235.845 158.71C222.262 163.44 214.03 176.394 214.648 189.965C215.265 177.422 223.291 165.702 235.845 161.383Z" fill="#806339"/>
<path d="M262.189 191.816C264.247 197.573 260.955 202.302 255.604 204.975L258.073 212.172L250.665 214.64L248.195 207.237C243.873 208.06 239.14 207.854 235.435 206.415L236.67 197.367C240.786 199.012 246.96 199.218 250.047 198.19C251.488 197.573 252.311 196.956 251.899 195.723C250.459 191.61 235.435 199.835 231.731 188.937C230.085 183.796 232.348 179.067 237.699 175.983L235.23 168.786L242.638 166.319L245.108 173.31C249.018 172.487 253.134 172.487 256.427 173.31L255.398 182.357C251.694 181.74 246.137 181.535 243.462 182.357C242.227 182.768 241.609 183.385 242.021 184.208C243.256 188.526 258.485 180.712 262.189 191.816Z" fill="#806339"/>
<path d="M262.189 189.554C264.247 195.311 260.955 200.04 255.604 202.714L258.073 209.91L250.665 212.378L248.195 204.975C243.873 205.798 239.14 205.592 235.435 204.153L236.67 195.106C240.786 196.751 246.96 196.956 250.047 195.928C251.488 195.311 252.311 194.694 251.899 193.461C250.459 189.348 235.435 197.573 231.731 186.675C230.085 181.534 232.348 176.805 237.699 173.721L235.23 166.524L242.638 164.057L245.108 171.048C249.018 170.225 253.134 170.225 256.427 171.048L255.398 180.095C251.694 179.478 246.137 179.273 243.462 180.095C242.227 180.506 241.609 181.123 242.021 181.946C243.256 186.264 258.485 178.245 262.189 189.554Z" fill="#FFC672"/>
<path d="M587.969 101.753L611.224 78.7236L612.665 86.9485L595.377 113.062L587.969 101.753Z" fill="#FFFDFF"/>
</svg>
