<svg id="Layer_1" data-name="Layer 1" xmlns="http://www.w3.org/2000/svg" viewBox="0 0 144.79 89.8"><defs><style>.cls-1{fill:#494948;}</style></defs><path class="cls-1" d="M78.87,89.1c.18,0,.3,0,.43,0a8.33,8.33,0,0,1,2.76.37,8.75,8.75,0,0,1,4.3,13.79l-5.49,7c-.33.42-.34.43-.05.9A6.25,6.25,0,0,0,92,110.29a2.58,2.58,0,0,0,.2-1.07q0-7.56-.08-15.14c0-2.31,0-4.61,0-6.92a1,1,0,0,0-.34-.8q-4.16-3.81-8.27-7.64c-1.58-1.46-3.17-2.92-4.74-4.4a1.57,1.57,0,0,1-.12-2.26,1.65,1.65,0,0,1,2.32-.19c.34.27.67.56,1,.86q6.41,5.91,12.82,11.84a2.13,2.13,0,0,1,.71,1.65c0,1.37,0,2.74,0,4.12q0,7.43,0,14.87a.91.91,0,0,0,.35.75,6.26,6.26,0,0,0,9.67-1.89,1.75,1.75,0,0,0,.19-.84l-.06-16.36c0-2.17,0-4.35,0-6.53a1.08,1.08,0,0,0-.4-.89c-2.93-2.57-5.82-5.18-8.75-7.75s-5.88-5.22-8.81-7.84c-.28-.25-.56-.48-.81-.74A1.67,1.67,0,0,1,89,60.62a5.15,5.15,0,0,1,.5.43c4.39,3.87,8.71,7.82,13.13,11.66,1.88,1.63,3.71,3.31,5.58,5A2,2,0,0,1,109,79.3c0,6,.06,11.93.08,17.89a1.45,1.45,0,0,0,.33,1,6.25,6.25,0,0,0,9.72,0,3.67,3.67,0,0,0,.91-2.55c-.1-4.24-.1-8.49-.13-12.73,0-2.73,0-5.45,0-8.18a.86.86,0,0,0-.32-.7c-.71-.64-1.43-1.26-2.13-1.9q-10.73-9.82-21.42-19.67a1.34,1.34,0,0,0-1-.38q-4.55,0-9.11.06-6.22,0-12.45,0a.8.8,0,0,0-.86.55C71,56,69.38,59.31,67.81,62.61a10.07,10.07,0,1,1-18.18-8.68C51,51,52.41,48,53.8,45.1c.94-2,1.88-4,2.8-6A3.25,3.25,0,0,1,59,37.2a6.45,6.45,0,0,0,.62-.21l13.6-5.11.3-.12c.16-.05.19-.15.11-.29-.21-.41-.42-.81-.62-1.22-.07-.14-.16-.19-.31-.12a1.92,1.92,0,0,1-.31.11L45,39.64a2.41,2.41,0,0,1-.75.17l-11.35.1c-3.7,0-7.39,0-11.09.11-4,.06-8,.08-12,.11L3,40.18c-.43,0-.43,0-.43.42a1,1,0,0,0,0,.17l.09,15.8q.06,12.34.11,24.7c0,.71-.08.62.6.62,4.89,0,9.77,0,14.65-.07a2.12,2.12,0,0,1,1.18.35c1.58,1,3.17,2,4.77,3,.42.27.36.33.71-.14l.07-.09,7.44-9.92a7.64,7.64,0,0,1,4-2.88,8.11,8.11,0,0,1,5.78.38,7.49,7.49,0,0,1,3.83,4,2.08,2.08,0,0,0,.26.59,1,1,0,0,0,.36-.41c.6-.79,1.19-1.57,1.77-2.37A8.64,8.64,0,0,1,50.86,72a8.78,8.78,0,0,1,10.2.78,8.22,8.22,0,0,1,2.92,5c.11.54.09,1.11.23,1.76A8.78,8.78,0,0,1,76.5,77.27,8.85,8.85,0,0,1,78.87,89.1Zm44.37-.5a1,1,0,0,0,.57-.29q2.37-1.65,4.71-3.32a1.48,1.48,0,0,1,.91-.29c2,0,4.06,0,6.09,0l11.14,0c.84,0,.73.12.73-.72,0-7.75-.08-15.51-.11-23.27,0-4.77,0-9.55,0-14.32,0-1.54,0-3.07,0-4.61,0-.46,0-.46-.49-.47h-1.54l-21.4.1c-5.5,0-11,0-16.51.06a2.31,2.31,0,0,1-1.2-.31L89.8,31.9a8,8,0,0,0-3.1-1,3.44,3.44,0,0,0-1.62.11Q72.54,35.71,60,40.4a1.15,1.15,0,0,0-.68.65Q57,45.91,54.73,50.77c-.75,1.58-1.52,3.16-2.24,4.76a6.79,6.79,0,0,0,6,9.62,6.57,6.57,0,0,0,6.37-3.87c.81-1.59,1.53-3.23,2.31-4.85,1-2.19,2-4.41,3.13-6.58a1.71,1.71,0,0,1,1.66-1l10.2-.06,6.92,0,6.42,0a2.9,2.9,0,0,1,2.12.69q7.62,7,15.28,14c3.18,2.92,6.35,5.85,9.54,8.75a1.84,1.84,0,0,1,.73,1.4c0,1.5,0,3,0,4.5,0,2.87,0,5.75,0,8.62C123.25,87.32,123.24,87.93,123.24,88.6ZM53.75,112.11a5.78,5.78,0,0,0,4.7-2.28L75.8,88a5.67,5.67,0,0,0-4.91-9.26,5.78,5.78,0,0,0-4,2.25C65.35,83,63.8,84.9,62.25,86.85q-6.37,8-12.74,16a5.67,5.67,0,0,0,4.24,9.24Zm1.82-38.4a5.67,5.67,0,0,0-4.76,2.34L36.9,94.75a5.67,5.67,0,0,0,4.16,9.08,5.58,5.58,0,0,0,5-2.37l9.63-12.94c1.44-1.94,2.91-3.85,4.31-5.81a5.67,5.67,0,0,0-4.4-9ZM85.16,97.84a5.65,5.65,0,0,0-10.11-3.5c-4.31,5.45-8.58,10.93-12.86,16.4a5.48,5.48,0,0,0-1.08,4.65,5.66,5.66,0,0,0,10,2.27l4.4-5.61,8.32-10.62A5.6,5.6,0,0,0,85.16,97.84Zm-59.52-7.1a5.22,5.22,0,0,0,.12.86A4.78,4.78,0,0,0,31,95.31a4.69,4.69,0,0,0,3.31-1.92q1.55-2,3.06-4.08c1.7-2.27,3.41-4.53,5.1-6.81A4.78,4.78,0,0,0,39.58,75a4.52,4.52,0,0,0-4.76,1.78c-2.78,3.66-5.52,7.34-8.26,11A4.76,4.76,0,0,0,25.64,90.74Z" transform="translate(-2.61 -30.1)"/><path class="cls-1" d="M78.87,89.1A8.85,8.85,0,0,0,76.5,77.27a8.78,8.78,0,0,0-12.29,2.18c-.14-.65-.12-1.22-.23-1.76a8.22,8.22,0,0,0-2.92-5A8.78,8.78,0,0,0,50.86,72a8.64,8.64,0,0,0-2.61,2.39c-.58.8-1.17,1.58-1.77,2.37a1,1,0,0,1-.36.41,2.08,2.08,0,0,1-.26-.59,7.49,7.49,0,0,0-3.83-4,8.11,8.11,0,0,0-5.78-.38,7.64,7.64,0,0,0-4,2.88L24.79,85l-.07.09c-.35.47-.29.41-.71.14-1.6-1-3.19-2-4.77-3a2.12,2.12,0,0,0-1.18-.35c-4.88,0-9.76.05-14.65.07-.68,0-.6.09-.6-.62q-.06-12.34-.11-24.7l-.09-15.8a1,1,0,0,1,0-.17c0-.41,0-.41.43-.42l6.85,0c4,0,8-.05,12-.11,3.7-.07,7.39-.07,11.09-.11l11.35-.1a2.41,2.41,0,0,0,.75-.17l27.3-9.4a1.92,1.92,0,0,0,.31-.11c.15-.07.24,0,.31.12.2.41.41.81.62,1.22.08.14,0,.24-.11.29l-.3.12L59.57,37a6.45,6.45,0,0,1-.62.21,3.25,3.25,0,0,0-2.35,1.95c-.92,2-1.86,4-2.8,6C52.41,48,51,51,49.63,53.93a10.07,10.07,0,1,0,18.18,8.68c1.57-3.3,3.14-6.61,4.68-9.92a.8.8,0,0,1,.86-.55q6.23,0,12.45,0,4.56,0,9.11-.06a1.34,1.34,0,0,1,1,.38q10.69,9.84,21.42,19.67c.7.64,1.42,1.26,2.13,1.9a.86.86,0,0,1,.32.7c0,2.73,0,5.45,0,8.18,0,4.24,0,8.49.13,12.73a3.67,3.67,0,0,1-.91,2.55,6.25,6.25,0,0,1-9.72,0,1.45,1.45,0,0,1-.33-1c0-6-.06-11.92-.08-17.89a2,2,0,0,0-.73-1.63c-1.87-1.65-3.7-3.33-5.58-5-4.42-3.84-8.74-7.79-13.13-11.66a5.15,5.15,0,0,0-.5-.43,1.67,1.67,0,0,0-2.19,2.5c.25.26.53.49.81.74,2.93,2.62,5.85,5.26,8.81,7.84s5.82,5.18,8.75,7.75a1.08,1.08,0,0,1,.4.89c0,2.18,0,4.36,0,6.53l.06,16.36a1.75,1.75,0,0,1-.19.84A6.26,6.26,0,0,1,95.83,106a.91.91,0,0,1-.35-.75q0-7.44,0-14.87c0-1.38,0-2.75,0-4.12a2.13,2.13,0,0,0-.71-1.65Q88.3,78.66,81.9,72.73c-.32-.3-.65-.59-1-.86a1.65,1.65,0,0,0-2.32.19,1.57,1.57,0,0,0,.12,2.26c1.57,1.48,3.16,2.94,4.74,4.4q4.13,3.82,8.27,7.64a1,1,0,0,1,.34.8c0,2.31,0,4.61,0,6.92q0,7.58.08,15.14a2.58,2.58,0,0,1-.2,1.07,6.25,6.25,0,0,1-11.15.87c-.29-.47-.28-.48.05-.9l5.49-7a8.75,8.75,0,0,0-4.3-13.79,8.33,8.33,0,0,0-2.76-.37C79.17,89.11,79.05,89.1,78.87,89.1Z" transform="translate(-2.61 -30.1)"/><path class="cls-1" d="M123.24,88.6c0-.67,0-1.28,0-1.9,0-2.87,0-5.75,0-8.62,0-1.5,0-3,0-4.5a1.84,1.84,0,0,0-.73-1.4c-3.19-2.9-6.36-5.83-9.54-8.75q-7.65-7-15.28-14a2.9,2.9,0,0,0-2.12-.69l-6.42,0-6.92,0-10.2.06a1.71,1.71,0,0,0-1.66,1c-1.09,2.17-2.09,4.39-3.13,6.58-.78,1.62-1.5,3.26-2.31,4.85a6.57,6.57,0,0,1-6.37,3.87,6.79,6.79,0,0,1-6-9.62c.72-1.6,1.49-3.18,2.24-4.76q2.3-4.86,4.58-9.72A1.15,1.15,0,0,1,60,40.4Q72.53,35.71,85.08,31a3.44,3.44,0,0,1,1.62-.11,8,8,0,0,1,3.1,1l16.27,9.2a2.31,2.31,0,0,0,1.2.31c5.5,0,11,0,16.51-.06l21.4-.1h1.54c.48,0,.49,0,.49.47,0,1.54,0,3.07,0,4.61,0,4.77,0,9.55,0,14.32,0,7.76.08,15.52.11,23.27,0,.84.11.71-.73.72l-11.14,0c-2,0-4.06,0-6.09,0a1.48,1.48,0,0,0-.91.29q-2.34,1.67-4.71,3.32A1,1,0,0,1,123.24,88.6Z" transform="translate(-2.61 -30.1)"/><path class="cls-1" d="M53.75,112.11a5.67,5.67,0,0,1-4.24-9.24q6.35-8,12.74-16C63.8,84.9,65.35,83,66.89,81a5.78,5.78,0,0,1,4-2.25A5.67,5.67,0,0,1,75.8,88L58.45,109.83A5.78,5.78,0,0,1,53.75,112.11Z" transform="translate(-2.61 -30.1)"/><path class="cls-1" d="M55.57,73.71a5.67,5.67,0,0,1,4.4,9c-1.4,2-2.87,3.87-4.31,5.81L46,101.46a5.58,5.58,0,0,1-5,2.37,5.67,5.67,0,0,1-4.16-9.08l13.91-18.7A5.67,5.67,0,0,1,55.57,73.71Z" transform="translate(-2.61 -30.1)"/><path class="cls-1" d="M85.16,97.84a5.6,5.6,0,0,1-1.28,3.59l-8.32,10.62-4.4,5.61a5.66,5.66,0,0,1-10-2.27,5.48,5.48,0,0,1,1.08-4.65c4.28-5.47,8.55-10.95,12.86-16.4a5.65,5.65,0,0,1,10.11,3.5Z" transform="translate(-2.61 -30.1)"/><path class="cls-1" d="M25.64,90.74a4.76,4.76,0,0,1,.92-3c2.74-3.68,5.48-7.36,8.26-11a4.79,4.79,0,0,1,8.44,1.72,4.57,4.57,0,0,1-.81,4c-1.69,2.28-3.4,4.54-5.1,6.81q-1.51,2-3.06,4.08A4.69,4.69,0,0,1,31,95.31a4.78,4.78,0,0,1-5.22-3.71A5.22,5.22,0,0,1,25.64,90.74Z" transform="translate(-2.61 -30.1)"/></svg>