<svg id="Layer_1" data-name="Layer 1" xmlns="http://www.w3.org/2000/svg" viewBox="0 0 146 132.42"><defs><style>.cls-1{fill:#494948;}</style></defs><path class="cls-1" d="M148,98.12a30.48,30.48,0,0,1-6.51,6,35.86,35.86,0,0,1-15.63,5.25,50.7,50.7,0,0,1-22.77-2.14c-5.31-1.85-10.31-5.49-12.74-9.46,2.46,0,4.8-.06,7.13,0a1.76,1.76,0,0,0,2.08-1.47C104.33,81.56,109.19,66.8,114,52c.32-1,.7-1.43,1.74-1.28.47.07,1,0,1.42,0,.89.12,1.14-.23,1.13-1.11s-.19-1.15-1.1-1.13A16.66,16.66,0,0,1,105.8,44.7C101.06,40.76,96.44,41,91.42,44c-4.11,2.52-8.31,5-13.19,5.8-.63.1-.59.46-.59.89q0,12.33,0,24.66a3.29,3.29,0,0,0,.46,1.47c1.38,2.91,2.73,5.84,4.15,8.73a5.23,5.23,0,0,1,.54,2.46c0,9.31,0,18.62,0,27.94,0,1.17.29,1.52,1.48,1.49,3.18-.09,6.36,0,9.55,0,.85,0,1.38.09,1.2,1.12-.53,3,.7,5.3,2.51,7.61,3.57,4.56,6.89,9.31,10.31,14l.74,1.07H45.21c0-.51.36-.85.59-1.23,2.87-4.74,5.69-9.53,8.67-14.2a9.65,9.65,0,0,0,1.75-6.24c-.17-2.07,0-2.08,2-2.08,3.42,0,6.85-.09,10.26,0,1.45,0,1.68-.43,1.66-1.74C70,106.49,70,97.23,69.91,88a5.42,5.42,0,0,1,.57-2.59c1.53-3,3.57-6,4.35-9.21s.21-6.71.25-10.08c.06-5,.1-10,.21-15,0-.94-.19-1.22-1.18-1.34a26.74,26.74,0,0,1-9.25-3.5,61,61,0,0,0-8.09-4.13A8.08,8.08,0,0,0,49.3,43c-1.81,1.14-3.53,2.42-5.39,3.46a17.69,17.69,0,0,1-9.74,2.1c-.66,0-1.32-.2-1.24.92,0,.85,0,1.37,1.17,1.35,2.71-.06,2.7,0,3.55,2.65Q44.54,75,51.4,96.48a1.6,1.6,0,0,0,1.89,1.35c2.07-.11,4.14,0,6.45,0a22.55,22.55,0,0,1-8.32,7.41C45,108.7,38.1,109.79,31,109.8s-14.19-1.08-20.61-4.59A23.31,23.31,0,0,1,2,97.8c2.45,0,4.66-.12,6.84,0,1.56.11,2.14-.45,2.61-1.91,4.69-14.61,9.49-29.18,14.2-43.79.36-1.1.81-1.61,2-1.38a.33.33,0,0,0,.14,0c.71-.27,1.83.6,2.17-.53.49-1.58,0-2.4-1.37-3.16-3-1.67-4.44-4.34-5-8,2.09,1.75,3.92,3.31,6.26,4,.32-.5-.18-1.31.35-1.46a5.87,5.87,0,0,1,2.4,0c.67.1.39.8.35,1.2-.1.93.28,1.21,1.16,1.26a7.28,7.28,0,0,0,5.23-1.84,38.11,38.11,0,0,0,4.6-4.47c3.78-4.28,8.38-5.48,13.89-4.27,4.69,1,9.18,2.69,13.77,4,3.36,1,3.35,1,3.35-2.53,0-2.75,0-5.51,0-8.26,0-.86-.28-1.13-1.08-1.29a8.38,8.38,0,0,1,1-16.6A8.4,8.4,0,0,1,78,25.24c-1,.3-1.2.73-1.18,1.66,0,3.33.11,6.66,0,10-.06,1.5.53,1.49,1.63,1.24C82,37.3,85.47,36,89,34.92a53,53,0,0,1,8.47-1.83c4.14-.51,7.38,1.12,10.22,3.93,1.72,1.7,3.44,3.41,5.22,5a7.26,7.26,0,0,0,4.31,2c.75.08,1.11-.11,1-.89-.18-1.22.19-1.65,1.55-1.69s1.53.61,1.44,1.67c0,.07.06.16.14.34a15.25,15.25,0,0,0,7.14-4.35h0a3.23,3.23,0,0,1-.27,2.6,9.05,9.05,0,0,1-6.07,6.11c-1.58.48-.89,1.57-.92,2.41s.87.47,1.32.48c2.47.07,2.46,0,3.21,2.37q7,21.78,13.95,43.56a1.37,1.37,0,0,0,1.57,1.16c2.23-.07,4.47,0,6.7,0ZM118.24,75.8c0-6.88,0-13.77,0-20.65,0-.5.45-1.28-.6-1.45s-1.19.39-1.43,1.14q-6.78,20.86-13.6,41.69c-.4,1.2-.07,1.29,1,1.28,4.42,0,8.83-.07,13.24,0,1.24,0,1.45-.39,1.44-1.52C118.21,89.47,118.24,82.63,118.24,75.8Zm-104.3,22c5.19,0,10.22,0,15.24,0,.66,0,.81-.24.79-.83,0-1.09,0-2.18,0-3.28V54.93c0-1.14-.48-1.55-1.37-1.2-.53.21-.51.75-.65,1.18Q22.67,71.05,17.4,87.18ZM121.2,75.69c0,7,0,14,0,20.93,0,.92.21,1.21,1.17,1.19,4.46,0,8.92-.06,13.39,0,1.14,0,1.19-.28.87-1.26q-6.74-20.86-13.4-41.77c-.25-.79-.57-1.22-1.46-1.08s-.52.89-.52,1.33C121.19,61.92,121.2,68.8,121.2,75.69ZM33,75.62c0,6.93,0,13.86,0,20.79,0,1.15.33,1.41,1.43,1.4q6.54-.09,13.1,0c1.15,0,1.19-.32.88-1.29Q41.62,75.73,35,54.9c-.23-.71-.38-1.38-1.39-1.21s-.62,1-.62,1.56C32.94,62,33,68.83,33,75.62Z" transform="translate(-2 -8.79)"/><path class="cls-1" d="M74.91,74.89l.18.2s-.08,0-.08,0a1.47,1.47,0,0,1-.1-.22Z" transform="translate(-2 -8.79)"/></svg>